<svg width="1267" height="459" viewBox="0 0 1267 459" fill="none" xmlns="http://www.w3.org/2000/svg">
<path d="M478.515 0.966797H757.488L748.124 142.39H428.791L478.515 0.966797Z" fill="url(#paint0_linear_120_2)"/>
<path d="M479.807 458.817H758.779L749.416 317.394H430.083L479.807 458.817Z" fill="url(#paint1_linear_120_2)"/>
<path d="M25.3833 184.985C40.788 159.273 68.4981 143.467 98.4716 143.297L1129.38 137.433C1152.94 137.299 1175.77 146.23 1193.05 162.254V162.254C1232.69 199.021 1232.62 262.079 1192.61 298.438V298.438C1175.53 313.954 1153.26 322.509 1130.19 322.417L102.553 318.326C70.2266 318.197 40.5004 300.587 24.8561 272.299L23.9024 270.574C9.10637 243.82 9.67057 211.212 25.3833 184.985V184.985Z" fill="#C4C4C4"/>
<rect x="212.458" y="283.814" width="29.7054" height="28.4139" rx="14.2069" fill="#F0F0F0"/>
<rect x="274.452" y="283.814" width="29.7054" height="28.4139" rx="14.2069" fill="#F0F0F0"/>
<rect x="212.458" y="248.942" width="29.7054" height="28.4139" rx="14.2069" fill="#F0F0F0"/>
<rect x="274.452" y="248.942" width="29.7054" height="28.4139" rx="14.2069" fill="#F0F0F0"/>
<rect x="212.458" y="182.428" width="29.7054" height="28.4139" rx="14.2069" fill="#F0F0F0"/>
<rect x="274.452" y="182.428" width="29.7054" height="28.4139" rx="14.2069" fill="#F0F0F0"/>
<rect x="212.458" y="147.556" width="29.7054" height="28.4139" rx="14.2069" fill="#F0F0F0"/>
<rect x="274.452" y="147.556" width="29.7054" height="28.4139" rx="14.2069" fill="#F0F0F0"/>
<rect x="319.01" y="142.39" width="26.4766" height="23.2477" rx="10" fill="#F0F0F0"/>
<rect x="319.01" y="244.422" width="26.4766" height="23.2477" rx="10" fill="#F0F0F0"/>
<rect x="356.465" y="244.422" width="26.4766" height="23.2477" rx="10" fill="#F0F0F0"/>
<rect x="356.465" y="142.39" width="26.4766" height="23.2477" rx="10" fill="#F0F0F0"/>
<rect x="391.336" y="142.39" width="26.4766" height="23.2477" rx="10" fill="#F0F0F0"/>
<rect x="428.791" y="142.39" width="26.4766" height="23.2477" rx="10" fill="#5AB130"/>
<rect x="461.08" y="142.39" width="26.4766" height="23.2477" rx="10" fill="#F0F0F0"/>
<rect x="495.951" y="142.39" width="26.4766" height="23.2477" rx="10" fill="#F0F0F0"/>
<rect x="574.089" y="142.39" width="26.4766" height="23.2477" rx="10" fill="#F0F0F0"/>
<rect x="608.961" y="142.39" width="26.4766" height="23.2477" rx="10" fill="#F0F0F0"/>
<rect x="643.832" y="142.39" width="26.4766" height="23.2477" rx="10" fill="#767676"/>
<rect x="678.704" y="142.39" width="26.4766" height="23.2477" rx="10" fill="#F0F0F0"/>
<rect x="716.804" y="142.39" width="26.4766" height="23.2477" rx="10" fill="#767676"/>
<rect x="751.676" y="143.036" width="26.4766" height="23.2477" rx="10" fill="#F0F0F0"/>
<rect x="786.547" y="143.036" width="26.4766" height="23.2477" rx="10" fill="#F0F0F0"/>
<rect x="821.419" y="142.39" width="26.4766" height="23.2477" rx="10" fill="#F0F0F0"/>
<rect x="856.291" y="142.39" width="26.4766" height="23.2477" rx="10" fill="#F0F0F0"/>
<rect x="894.391" y="143.036" width="26.4766" height="23.2477" rx="10" fill="#F0F0F0"/>
<rect x="929.263" y="142.39" width="26.4766" height="23.2477" rx="10" fill="#F0F0F0"/>
<rect x="964.134" y="143.036" width="26.4766" height="23.2477" rx="10" fill="#F0F0F0"/>
<rect x="999.005" y="143.036" width="26.4766" height="23.2477" rx="10" fill="#F0F0F0"/>
<rect x="391.336" y="244.422" width="26.4766" height="23.2477" rx="10" fill="#767676"/>
<rect x="428.791" y="244.422" width="26.4766" height="23.2477" rx="10" fill="#F0F0F0"/>
<rect x="461.08" y="244.422" width="26.4766" height="23.2477" rx="10" fill="#F0F0F0"/>
<rect x="495.951" y="244.422" width="26.4766" height="23.2477" rx="10" fill="#F0F0F0"/>
<rect x="574.089" y="244.422" width="26.4766" height="23.2477" rx="10" fill="#F0F0F0"/>
<rect x="608.961" y="244.422" width="26.4766" height="23.2477" rx="10" fill="#F0F0F0"/>
<rect x="643.832" y="244.422" width="26.4766" height="23.2477" rx="10" fill="#F0F0F0"/>
<rect x="678.704" y="244.422" width="26.4766" height="23.2477" rx="10" fill="#F0F0F0"/>
<rect x="716.804" y="244.422" width="26.4766" height="23.2477" rx="10" fill="#F0F0F0"/>
<rect x="751.676" y="245.068" width="26.4766" height="23.2477" rx="10" fill="#F0F0F0"/>
<rect x="786.547" y="245.068" width="26.4766" height="23.2477" rx="10" fill="#F0F0F0"/>
<rect x="821.419" y="244.422" width="26.4766" height="23.2477" rx="10" fill="#F0F0F0"/>
<rect x="856.291" y="244.422" width="26.4766" height="23.2477" rx="10" fill="#F0F0F0"/>
<rect x="894.391" y="245.068" width="26.4766" height="23.2477" rx="10" fill="#F0F0F0"/>
<rect x="929.263" y="244.422" width="26.4766" height="23.2477" rx="10" fill="#F0F0F0"/>
<rect x="964.134" y="245.068" width="26.4766" height="23.2477" rx="10" fill="#F0F0F0"/>
<rect x="999.005" y="245.068" width="26.4766" height="23.2477" rx="10" fill="#F0F0F0"/>
<rect x="319.01" y="166.93" width="26.4766" height="23.2477" rx="10" fill="#F0F0F0"/>
<rect x="319.01" y="268.961" width="26.4766" height="23.2477" rx="10" fill="#F0F0F0"/>
<rect x="356.465" y="268.961" width="26.4766" height="23.2477" rx="10" fill="#F0F0F0"/>
<rect x="356.465" y="166.93" width="26.4766" height="23.2477" rx="10" fill="#F0F0F0"/>
<rect x="391.336" y="166.93" width="26.4766" height="23.2477" rx="10" fill="#F0F0F0"/>
<rect x="428.791" y="166.93" width="26.4766" height="23.2477" rx="10" fill="#F0F0F0"/>
<rect x="461.08" y="166.93" width="26.4766" height="23.2477" rx="10" fill="#F0F0F0"/>
<rect x="495.951" y="166.93" width="26.4766" height="23.2477" rx="10" fill="#F0F0F0"/>
<rect x="574.089" y="166.93" width="26.4766" height="23.2477" rx="10" fill="#F0F0F0"/>
<rect x="608.961" y="166.93" width="26.4766" height="23.2477" rx="10" fill="#F0F0F0"/>
<rect x="643.832" y="166.93" width="26.4766" height="23.2477" rx="10" fill="#F0F0F0"/>
<rect x="678.704" y="166.93" width="26.4766" height="23.2477" rx="10" fill="#F0F0F0"/>
<rect x="716.804" y="166.93" width="26.4766" height="23.2477" rx="10" fill="#767676"/>
<rect x="751.676" y="167.575" width="26.4766" height="23.2477" rx="10" fill="#F0F0F0"/>
<rect x="786.547" y="167.575" width="26.4766" height="23.2477" rx="10" fill="#F0F0F0"/>
<rect x="821.419" y="166.93" width="26.4766" height="23.2477" rx="10" fill="#F0F0F0"/>
<rect x="856.291" y="166.93" width="26.4766" height="23.2477" rx="10" fill="#F0F0F0"/>
<rect x="894.391" y="167.575" width="26.4766" height="23.2477" rx="10" fill="#F0F0F0"/>
<rect x="929.263" y="166.93" width="26.4766" height="23.2477" rx="10" fill="#F0F0F0"/>
<rect x="964.134" y="167.575" width="26.4766" height="23.2477" rx="10" fill="#F0F0F0"/>
<rect x="999.005" y="167.575" width="26.4766" height="23.2477" rx="10" fill="#F0F0F0"/>
<rect x="391.336" y="268.961" width="26.4766" height="23.2477" rx="10" fill="#767676"/>
<rect x="428.791" y="268.961" width="26.4766" height="23.2477" rx="10" fill="#F0F0F0"/>
<rect x="461.08" y="268.961" width="26.4766" height="23.2477" rx="10" fill="#F0F0F0"/>
<rect x="495.951" y="268.961" width="26.4766" height="23.2477" rx="10" fill="#F0F0F0"/>
<rect x="574.089" y="268.961" width="26.4766" height="23.2477" rx="10" fill="#F0F0F0"/>
<rect x="608.961" y="268.961" width="26.4766" height="23.2477" rx="10" fill="#F0F0F0"/>
<rect x="643.832" y="268.961" width="26.4766" height="23.2477" rx="10" fill="#F0F0F0"/>
<rect x="678.704" y="268.961" width="26.4766" height="23.2477" rx="10" fill="#767676"/>
<rect x="716.804" y="268.961" width="26.4766" height="23.2477" rx="10" fill="#F0F0F0"/>
<rect x="751.676" y="269.607" width="26.4766" height="23.2477" rx="10" fill="#F0F0F0"/>
<rect x="786.547" y="269.607" width="26.4766" height="23.2477" rx="10" fill="#F0F0F0"/>
<rect x="821.419" y="268.961" width="26.4766" height="23.2477" rx="10" fill="#F0F0F0"/>
<rect x="856.291" y="268.961" width="26.4766" height="23.2477" rx="10" fill="#F0F0F0"/>
<rect x="894.391" y="269.607" width="26.4766" height="23.2477" rx="10" fill="#F0F0F0"/>
<rect x="929.263" y="268.961" width="26.4766" height="23.2477" rx="10" fill="#F0F0F0"/>
<rect x="964.134" y="269.607" width="26.4766" height="23.2477" rx="10" fill="#F0F0F0"/>
<rect x="999.005" y="269.607" width="26.4766" height="23.2477" rx="10" fill="#F0F0F0"/>
<rect x="319.01" y="191.469" width="26.4766" height="23.2477" rx="10" fill="#F0F0F0"/>
<rect x="319.01" y="293.5" width="26.4766" height="23.2477" rx="10" fill="#F0F0F0"/>
<rect x="356.465" y="293.5" width="26.4766" height="23.2477" rx="10" fill="#F0F0F0"/>
<rect x="356.465" y="191.469" width="26.4766" height="23.2477" rx="10" fill="#F0F0F0"/>
<rect x="391.336" y="191.469" width="26.4766" height="23.2477" rx="10" fill="#F0F0F0"/>
<rect x="428.791" y="191.469" width="26.4766" height="23.2477" rx="10" fill="#F0F0F0"/>
<rect x="461.08" y="191.469" width="26.4766" height="23.2477" rx="10" fill="#F0F0F0"/>
<rect x="495.951" y="191.469" width="26.4766" height="23.2477" rx="10" fill="#F0F0F0"/>
<rect x="574.089" y="191.469" width="26.4766" height="23.2477" rx="10" fill="#F0F0F0"/>
<rect x="608.961" y="191.469" width="26.4766" height="23.2477" rx="10" fill="#F0F0F0"/>
<rect x="643.832" y="191.469" width="26.4766" height="23.2477" rx="10" fill="#F0F0F0"/>
<rect x="678.704" y="191.469" width="26.4766" height="23.2477" rx="10" fill="#F0F0F0"/>
<rect x="716.804" y="191.469" width="26.4766" height="23.2477" rx="10" fill="#F0F0F0"/>
<rect x="751.676" y="192.115" width="26.4766" height="23.2477" rx="10" fill="#F0F0F0"/>
<rect x="786.547" y="192.115" width="26.4766" height="23.2477" rx="10" fill="#F0F0F0"/>
<rect x="821.419" y="191.469" width="26.4766" height="23.2477" rx="10" fill="#F0F0F0"/>
<rect x="856.291" y="191.469" width="26.4766" height="23.2477" rx="10" fill="#F0F0F0"/>
<rect x="894.391" y="192.115" width="26.4766" height="23.2477" rx="10" fill="#F0F0F0"/>
<rect x="929.263" y="191.469" width="26.4766" height="23.2477" rx="10" fill="#F0F0F0"/>
<rect x="964.134" y="192.115" width="26.4766" height="23.2477" rx="10" fill="#F0F0F0"/>
<rect x="999.005" y="192.115" width="26.4766" height="23.2477" rx="10" fill="#F0F0F0"/>
<rect x="391.336" y="293.5" width="26.4766" height="23.2477" rx="10" fill="#F0F0F0"/>
<rect x="428.791" y="293.5" width="26.4766" height="23.2477" rx="10" fill="#F0F0F0"/>
<rect x="461.08" y="293.5" width="26.4766" height="23.2477" rx="10" fill="#F0F0F0"/>
<rect x="495.951" y="293.5" width="26.4766" height="23.2477" rx="10" fill="#F0F0F0"/>
<rect x="574.089" y="293.5" width="26.4766" height="23.2477" rx="10" fill="#F0F0F0"/>
<rect x="608.961" y="293.5" width="26.4766" height="23.2477" rx="10" fill="#F0F0F0"/>
<rect x="643.832" y="293.5" width="26.4766" height="23.2477" rx="10" fill="#F0F0F0"/>
<rect x="678.704" y="293.5" width="26.4766" height="23.2477" rx="10" fill="#767676"/>
<rect x="716.804" y="293.5" width="26.4766" height="23.2477" rx="10" fill="#F0F0F0"/>
<rect x="751.676" y="294.146" width="26.4766" height="23.2477" rx="10" fill="#F0F0F0"/>
<rect x="786.547" y="294.146" width="26.4766" height="23.2477" rx="10" fill="#767676"/>
<rect x="821.419" y="293.5" width="26.4766" height="23.2477" rx="10" fill="#F0F0F0"/>
<rect x="856.291" y="293.5" width="26.4766" height="23.2477" rx="10" fill="#F0F0F0"/>
<rect x="894.391" y="294.146" width="26.4766" height="23.2477" rx="10" fill="#F0F0F0"/>
<rect x="929.263" y="293.5" width="26.4766" height="23.2477" rx="10" fill="#F0F0F0"/>
<rect x="964.134" y="294.146" width="26.4766" height="23.2477" rx="10" fill="#F0F0F0"/>
<rect x="999.005" y="294.146" width="26.4766" height="23.2477" rx="10" fill="#F0F0F0"/>
<path d="M539.863 133.027L549.873 125.6L559.236 133.027" stroke="black" stroke-width="4" stroke-linecap="round"/>
<path d="M123.988 133.027L133.997 125.6L143.361 133.027" stroke="black" stroke-width="4" stroke-linecap="round"/>
<path d="M1104.27 133.027L1114.28 125.6L1123.64 133.027" stroke="black" stroke-width="4" stroke-linecap="round"/>
<path d="M1123.64 317.394L1113.63 324.82L1104.27 317.394" stroke="black" stroke-width="4" stroke-linecap="round"/>
<path d="M559.237 317.394L549.227 324.82L539.863 317.394" stroke="black" stroke-width="4" stroke-linecap="round"/>
<path d="M143.361 316.748L133.351 324.175L123.988 316.748" stroke="black" stroke-width="4" stroke-linecap="round"/>
<path d="M539.863 142.067L549.873 134.641L559.236 142.067" stroke="black" stroke-width="4" stroke-linecap="round"/>
<path d="M123.988 142.067L133.997 134.641L143.361 142.067" stroke="black" stroke-width="4" stroke-linecap="round"/>
<path d="M1104.27 142.067L1114.28 134.641L1123.64 142.067" stroke="black" stroke-width="4" stroke-linecap="round"/>
<path d="M1123.64 326.434L1113.63 333.861L1104.27 326.434" stroke="black" stroke-width="4" stroke-linecap="round"/>
<path d="M559.237 326.434L549.227 333.861L539.863 326.434" stroke="black" stroke-width="4" stroke-linecap="round"/>
<path d="M143.361 325.789L133.351 333.215L123.988 325.789" stroke="black" stroke-width="4" stroke-linecap="round"/>
<path d="M1042.92 137.224H1082.96V199.717C1082.96 208.001 1076.24 214.717 1067.96 214.717H1057.92C1049.63 214.717 1042.92 208.001 1042.92 199.717V137.224Z" fill="#747474"/>
<path d="M75.5549 183.72C75.5549 161.607 93.4804 143.682 115.593 143.682V143.682V201.008C115.593 209.292 108.877 216.008 100.593 216.008H75.5549V183.72Z" fill="#747474"/>
<path d="M149.173 143.036H183.399V205.529C183.399 213.813 176.683 220.528 168.399 220.528H164.173C155.889 220.528 149.173 213.813 149.173 205.528V143.036Z" fill="#747474"/>
<path d="M1042.92 260.068C1042.92 251.783 1049.63 245.068 1057.92 245.068H1067.96C1076.24 245.068 1082.96 251.783 1082.96 260.068V322.56H1042.92V260.068Z" fill="#747474"/>
<path d="M75.5549 246.359H100.593C108.877 246.359 115.593 253.075 115.593 261.359V318.04V318.04C93.4804 318.04 75.5549 300.114 75.5549 278.002V246.359Z" fill="#747474"/>
<path d="M100.503 270.778L96.3275 283.378H93.8435L90.7295 274.054L87.5615 283.378H85.0595L80.8835 270.778H83.3135L86.4455 280.354L89.7035 270.778H91.8635L95.0495 280.408L98.2715 270.778H100.503ZM108.101 283.558C106.829 283.558 105.677 283.282 104.645 282.73C103.625 282.166 102.821 281.392 102.233 280.408C101.657 279.424 101.369 278.314 101.369 277.078C101.369 275.842 101.663 274.732 102.251 273.748C102.839 272.764 103.643 271.996 104.663 271.444C105.695 270.88 106.847 270.598 108.119 270.598C109.151 270.598 110.093 270.778 110.945 271.138C111.797 271.498 112.517 272.02 113.105 272.704L111.593 274.126C110.681 273.142 109.559 272.65 108.227 272.65C107.363 272.65 106.589 272.842 105.905 273.226C105.221 273.598 104.687 274.12 104.303 274.792C103.919 275.464 103.727 276.226 103.727 277.078C103.727 277.93 103.919 278.692 104.303 279.364C104.687 280.036 105.221 280.564 105.905 280.948C106.589 281.32 107.363 281.506 108.227 281.506C109.559 281.506 110.681 281.008 111.593 280.012L113.105 281.452C112.517 282.136 111.791 282.658 110.927 283.018C110.075 283.378 109.133 283.558 108.101 283.558Z" fill="white"/>
<path d="M1067.87 273.361L1063.69 285.961H1061.21L1058.09 276.637L1054.92 285.961H1052.42L1048.25 273.361H1050.68L1053.81 282.937L1057.07 273.361H1059.23L1062.41 282.991L1065.63 273.361H1067.87ZM1075.46 286.141C1074.19 286.141 1073.04 285.865 1072.01 285.313C1070.99 284.749 1070.18 283.975 1069.6 282.991C1069.02 282.007 1068.73 280.897 1068.73 279.661C1068.73 278.425 1069.03 277.315 1069.61 276.331C1070.2 275.347 1071.01 274.579 1072.03 274.027C1073.06 273.463 1074.21 273.181 1075.48 273.181C1076.51 273.181 1077.46 273.361 1078.31 273.721C1079.16 274.081 1079.88 274.603 1080.47 275.287L1078.96 276.709C1078.04 275.725 1076.92 275.233 1075.59 275.233C1074.73 275.233 1073.95 275.425 1073.27 275.809C1072.58 276.181 1072.05 276.703 1071.67 277.375C1071.28 278.047 1071.09 278.809 1071.09 279.661C1071.09 280.513 1071.28 281.275 1071.67 281.947C1072.05 282.619 1072.58 283.147 1073.27 283.531C1073.95 283.903 1074.73 284.089 1075.59 284.089C1076.92 284.089 1078.04 283.591 1078.96 282.595L1080.47 284.035C1079.88 284.719 1079.15 285.241 1078.29 285.601C1077.44 285.961 1076.5 286.141 1075.46 286.141Z" fill="white"/>
<path d="M1067.87 171.33L1063.69 183.93H1061.21L1058.09 174.606L1054.92 183.93H1052.42L1048.25 171.33H1050.68L1053.81 180.906L1057.07 171.33H1059.23L1062.41 180.96L1065.63 171.33H1067.87ZM1075.46 184.11C1074.19 184.11 1073.04 183.834 1072.01 183.282C1070.99 182.718 1070.18 181.944 1069.6 180.96C1069.02 179.976 1068.73 178.866 1068.73 177.63C1068.73 176.394 1069.03 175.284 1069.61 174.3C1070.2 173.316 1071.01 172.548 1072.03 171.996C1073.06 171.432 1074.21 171.15 1075.48 171.15C1076.51 171.15 1077.46 171.33 1078.31 171.69C1079.16 172.05 1079.88 172.572 1080.47 173.256L1078.96 174.678C1078.04 173.694 1076.92 173.202 1075.59 173.202C1074.73 173.202 1073.95 173.394 1073.27 173.778C1072.58 174.15 1072.05 174.672 1071.67 175.344C1071.28 176.016 1071.09 176.778 1071.09 177.63C1071.09 178.482 1071.28 179.244 1071.67 179.916C1072.05 180.588 1072.58 181.116 1073.27 181.5C1073.95 181.872 1074.73 182.058 1075.59 182.058C1076.92 182.058 1078.04 181.56 1078.96 180.564L1080.47 182.004C1079.88 182.688 1079.15 183.21 1078.29 183.57C1077.44 183.93 1076.5 184.11 1075.46 184.11Z" fill="white"/>
<path d="M232.242 348.575V362.225H229.707V350.7H226.821V348.575H232.242ZM293.339 360.08V362.225H283.277V360.528L288.698 355.38C289.309 354.795 289.718 354.288 289.926 353.859C290.147 353.417 290.258 352.982 290.258 352.553C290.258 351.916 290.043 351.428 289.614 351.09C289.185 350.752 288.555 350.583 287.723 350.583C286.332 350.583 285.266 351.058 284.525 352.007L282.75 350.642C283.283 349.927 283.998 349.374 284.895 348.984C285.805 348.581 286.819 348.38 287.937 348.38C289.419 348.38 290.602 348.731 291.486 349.433C292.37 350.135 292.812 351.09 292.812 352.299C292.812 353.04 292.656 353.736 292.344 354.386C292.032 355.036 291.434 355.777 290.55 356.609L286.904 360.08H293.339ZM326.467 348.575V362.225H323.932V350.7H321.046V348.575H326.467ZM334.868 362.42C333.776 362.42 332.801 362.147 331.943 361.601C331.085 361.042 330.409 360.236 329.915 359.183C329.421 358.117 329.174 356.856 329.174 355.4C329.174 353.944 329.421 352.689 329.915 351.636C330.409 350.57 331.085 349.764 331.943 349.218C332.801 348.659 333.776 348.38 334.868 348.38C335.96 348.38 336.935 348.659 337.793 349.218C338.664 349.764 339.347 350.57 339.841 351.636C340.335 352.689 340.582 353.944 340.582 355.4C340.582 356.856 340.335 358.117 339.841 359.183C339.347 360.236 338.664 361.042 337.793 361.601C336.935 362.147 335.96 362.42 334.868 362.42ZM334.868 360.216C335.843 360.216 336.61 359.813 337.169 359.007C337.741 358.201 338.027 356.999 338.027 355.4C338.027 353.801 337.741 352.598 337.169 351.792C336.61 350.986 335.843 350.583 334.868 350.583C333.906 350.583 333.139 350.986 332.567 351.792C332.008 352.598 331.729 353.801 331.729 355.4C331.729 356.999 332.008 358.201 332.567 359.007C333.139 359.813 333.906 360.216 334.868 360.216ZM368.571 348.575V362.225H366.036V350.7H363.15V348.575H368.571ZM375.997 348.575V362.225H373.462V350.7H370.576V348.575H375.997ZM399.592 348.575V362.225H397.057V350.7H394.171V348.575H399.592ZM412.186 360.08V362.225H402.124V360.528L407.545 355.38C408.156 354.795 408.565 354.288 408.773 353.859C408.994 353.417 409.105 352.982 409.105 352.553C409.105 351.916 408.89 351.428 408.461 351.09C408.032 350.752 407.402 350.583 406.57 350.583C405.179 350.583 404.113 351.058 403.372 352.007L401.597 350.642C402.13 349.927 402.845 349.374 403.742 348.984C404.652 348.581 405.666 348.38 406.784 348.38C408.266 348.38 409.449 348.731 410.333 349.433C411.217 350.135 411.659 351.09 411.659 352.299C411.659 353.04 411.503 353.736 411.191 354.386C410.879 355.036 410.281 355.777 409.397 356.609L405.751 360.08H412.186ZM439.925 348.575V362.225H437.39V350.7H434.504V348.575H439.925ZM454.8 359.124H452.382V362.225H449.925V359.124H442.437V357.369L449.165 348.575H451.875L445.538 356.979H450.003V354.23H452.382V356.979H454.8V359.124ZM471.365 348.575V362.225H468.83V350.7H465.944V348.575H471.365ZM478.343 353.859C480.267 353.859 481.69 354.236 482.613 354.99C483.536 355.731 483.998 356.745 483.998 358.032C483.998 358.851 483.796 359.592 483.393 360.255C482.99 360.918 482.386 361.445 481.58 361.835C480.774 362.225 479.779 362.42 478.596 362.42C477.621 362.42 476.679 362.283 475.769 362.01C474.859 361.724 474.092 361.334 473.468 360.84L474.54 358.871C475.047 359.287 475.652 359.618 476.354 359.865C477.069 360.099 477.803 360.216 478.557 360.216C479.454 360.216 480.156 360.034 480.663 359.67C481.183 359.293 481.443 358.78 481.443 358.13C481.443 357.428 481.164 356.901 480.605 356.55C480.059 356.186 479.116 356.004 477.777 356.004H474.482L475.184 348.575H483.198V350.7H477.329L477.036 353.859H478.343ZM506.347 348.575V362.225H503.812V350.7H500.926V348.575H506.347ZM515.255 353.801C516.152 353.801 516.958 353.976 517.673 354.327C518.388 354.665 518.947 355.153 519.35 355.79C519.753 356.427 519.955 357.161 519.955 357.993C519.955 358.877 519.734 359.657 519.292 360.333C518.85 360.996 518.252 361.51 517.498 361.874C516.744 362.238 515.899 362.42 514.963 362.42C513.091 362.42 511.635 361.835 510.595 360.665C509.568 359.495 509.054 357.818 509.054 355.634C509.054 354.1 509.334 352.793 509.893 351.714C510.452 350.622 511.232 349.797 512.233 349.238C513.247 348.666 514.417 348.38 515.743 348.38C516.445 348.38 517.101 348.458 517.712 348.614C518.336 348.757 518.876 348.971 519.331 349.257L518.395 351.168C517.719 350.726 516.854 350.505 515.801 350.505C514.488 350.505 513.461 350.908 512.72 351.714C511.979 352.52 511.609 353.684 511.609 355.205V355.224C512.012 354.756 512.525 354.405 513.149 354.171C513.773 353.924 514.475 353.801 515.255 353.801ZM514.826 360.431C515.619 360.431 516.263 360.223 516.757 359.807C517.251 359.378 517.498 358.812 517.498 358.11C517.498 357.395 517.251 356.83 516.757 356.414C516.263 355.998 515.6 355.79 514.768 355.79C513.949 355.79 513.279 356.011 512.759 356.453C512.252 356.895 511.999 357.454 511.999 358.13C511.999 358.793 512.246 359.345 512.74 359.787C513.247 360.216 513.942 360.431 514.826 360.431ZM585.28 348.575V362.225H582.745V350.7H579.859V348.575H585.28ZM598.283 348.575V350.271L592.979 362.225H590.269L595.397 350.72H590.035V353.04H587.675V348.575H598.283ZM620.738 348.575V362.225H618.203V350.7H615.317V348.575H620.738ZM632.298 355.049C633.013 355.374 633.559 355.816 633.936 356.375C634.326 356.921 634.521 357.564 634.521 358.305C634.521 359.137 634.287 359.865 633.819 360.489C633.364 361.113 632.714 361.594 631.869 361.932C631.024 362.257 630.043 362.42 628.925 362.42C627.807 362.42 626.825 362.257 625.98 361.932C625.148 361.594 624.505 361.113 624.05 360.489C623.595 359.865 623.367 359.137 623.367 358.305C623.367 357.564 623.556 356.921 623.933 356.375C624.31 355.816 624.849 355.374 625.551 355.049C625.005 354.75 624.583 354.36 624.284 353.879C623.998 353.385 623.855 352.819 623.855 352.182C623.855 351.415 624.063 350.746 624.479 350.174C624.908 349.602 625.506 349.16 626.273 348.848C627.04 348.536 627.924 348.38 628.925 348.38C629.939 348.38 630.829 348.536 631.596 348.848C632.363 349.16 632.961 349.602 633.39 350.174C633.819 350.746 634.034 351.415 634.034 352.182C634.034 352.819 633.884 353.378 633.585 353.859C633.286 354.34 632.857 354.737 632.298 355.049ZM628.925 350.369C628.132 350.369 627.501 350.538 627.033 350.876C626.578 351.214 626.351 351.688 626.351 352.299C626.351 352.884 626.578 353.352 627.033 353.703C627.501 354.041 628.132 354.21 628.925 354.21C629.731 354.21 630.368 354.041 630.836 353.703C631.304 353.352 631.538 352.884 631.538 352.299C631.538 351.688 631.297 351.214 630.816 350.876C630.348 350.538 629.718 350.369 628.925 350.369ZM628.925 360.431C629.861 360.431 630.602 360.236 631.148 359.846C631.694 359.456 631.967 358.916 631.967 358.227C631.967 357.551 631.694 357.018 631.148 356.628C630.602 356.238 629.861 356.043 628.925 356.043C627.989 356.043 627.254 356.238 626.721 356.628C626.188 357.018 625.922 357.551 625.922 358.227C625.922 358.916 626.188 359.456 626.721 359.846C627.254 360.236 627.989 360.431 628.925 360.431ZM657.053 348.575V362.225H654.518V350.7H651.632V348.575H657.053ZM664.362 348.38C666.234 348.38 667.684 348.965 668.711 350.135C669.751 351.305 670.271 352.982 670.271 355.166C670.271 356.7 669.991 358.013 669.432 359.105C668.873 360.184 668.087 361.009 667.073 361.581C666.072 362.14 664.908 362.42 663.582 362.42C662.88 362.42 662.217 362.348 661.593 362.205C660.982 362.049 660.449 361.828 659.994 361.542L660.93 359.631C661.606 360.073 662.471 360.294 663.524 360.294C664.837 360.294 665.864 359.891 666.605 359.085C667.346 358.279 667.716 357.116 667.716 355.595V355.575C667.313 356.043 666.8 356.401 666.176 356.648C665.552 356.882 664.85 356.999 664.07 356.999C663.173 356.999 662.367 356.83 661.652 356.492C660.937 356.141 660.378 355.647 659.975 355.01C659.572 354.373 659.37 353.638 659.37 352.806C659.37 351.922 659.591 351.149 660.033 350.486C660.475 349.81 661.073 349.29 661.827 348.926C662.581 348.562 663.426 348.38 664.362 348.38ZM664.557 355.01C665.376 355.01 666.039 354.789 666.546 354.347C667.066 353.905 667.326 353.346 667.326 352.67C667.326 352.007 667.073 351.461 666.566 351.032C666.072 350.59 665.383 350.369 664.499 350.369C663.706 350.369 663.062 350.583 662.568 351.012C662.074 351.428 661.827 351.987 661.827 352.689C661.827 353.404 662.074 353.97 662.568 354.386C663.062 354.802 663.725 355.01 664.557 355.01ZM692.651 360.08V362.225H682.589V360.528L688.01 355.38C688.621 354.795 689.03 354.288 689.238 353.859C689.459 353.417 689.57 352.982 689.57 352.553C689.57 351.916 689.355 351.428 688.926 351.09C688.497 350.752 687.867 350.583 687.035 350.583C685.644 350.583 684.578 351.058 683.837 352.007L682.062 350.642C682.595 349.927 683.31 349.374 684.207 348.984C685.117 348.581 686.131 348.38 687.249 348.38C688.731 348.38 689.914 348.731 690.798 349.433C691.682 350.135 692.124 351.09 692.124 352.299C692.124 353.04 691.968 353.736 691.656 354.386C691.344 355.036 690.746 355.777 689.862 356.609L686.216 360.08H692.651ZM699.751 362.42C698.659 362.42 697.684 362.147 696.826 361.601C695.968 361.042 695.292 360.236 694.798 359.183C694.304 358.117 694.057 356.856 694.057 355.4C694.057 353.944 694.304 352.689 694.798 351.636C695.292 350.57 695.968 349.764 696.826 349.218C697.684 348.659 698.659 348.38 699.751 348.38C700.843 348.38 701.818 348.659 702.676 349.218C703.547 349.764 704.229 350.57 704.723 351.636C705.217 352.689 705.464 353.944 705.464 355.4C705.464 356.856 705.217 358.117 704.723 359.183C704.229 360.236 703.547 361.042 702.676 361.601C701.818 362.147 700.843 362.42 699.751 362.42ZM699.751 360.216C700.726 360.216 701.493 359.813 702.052 359.007C702.624 358.201 702.91 356.999 702.91 355.4C702.91 353.801 702.624 352.598 702.052 351.792C701.493 350.986 700.726 350.583 699.751 350.583C698.789 350.583 698.022 350.986 697.45 351.792C696.891 352.598 696.611 353.801 696.611 355.4C696.611 356.999 696.891 358.201 697.45 359.007C698.022 359.813 698.789 360.216 699.751 360.216ZM733.231 360.08V362.225H723.169V360.528L728.59 355.38C729.201 354.795 729.611 354.288 729.819 353.859C730.04 353.417 730.15 352.982 730.15 352.553C730.15 351.916 729.936 351.428 729.507 351.09C729.078 350.752 728.447 350.583 727.615 350.583C726.224 350.583 725.158 351.058 724.417 352.007L722.643 350.642C723.176 349.927 723.891 349.374 724.788 348.984C725.698 348.581 726.712 348.38 727.83 348.38C729.312 348.38 730.495 348.731 731.379 349.433C732.263 350.135 732.705 351.09 732.705 352.299C732.705 353.04 732.549 353.736 732.237 354.386C731.925 355.036 731.327 355.777 730.443 356.609L726.796 360.08H733.231ZM739.413 348.575V362.225H736.878V350.7H733.992V348.575H739.413ZM768.175 360.08V362.225H758.113V360.528L763.534 355.38C764.145 354.795 764.555 354.288 764.763 353.859C764.984 353.417 765.094 352.982 765.094 352.553C765.094 351.916 764.88 351.428 764.451 351.09C764.022 350.752 763.391 350.583 762.559 350.583C761.168 350.583 760.102 351.058 759.361 352.007L757.587 350.642C758.12 349.927 758.835 349.374 759.732 348.984C760.642 348.581 761.656 348.38 762.774 348.38C764.256 348.38 765.439 348.731 766.323 349.433C767.207 350.135 767.649 351.09 767.649 352.299C767.649 353.04 767.493 353.736 767.181 354.386C766.869 355.036 766.271 355.777 765.387 356.609L761.74 360.08H768.175ZM779.525 360.08V362.225H769.463V360.528L774.884 355.38C775.495 354.795 775.904 354.288 776.112 353.859C776.333 353.417 776.444 352.982 776.444 352.553C776.444 351.916 776.229 351.428 775.8 351.09C775.371 350.752 774.741 350.583 773.909 350.583C772.518 350.583 771.452 351.058 770.711 352.007L768.936 350.642C769.469 349.927 770.184 349.374 771.081 348.984C771.991 348.581 773.005 348.38 774.123 348.38C775.605 348.38 776.788 348.731 777.672 349.433C778.556 350.135 778.998 351.09 778.998 352.299C778.998 353.04 778.842 353.736 778.53 354.386C778.218 355.036 777.62 355.777 776.736 356.609L773.09 360.08H779.525ZM801.653 360.08V362.225H791.591V360.528L797.012 355.38C797.623 354.795 798.032 354.288 798.24 353.859C798.461 353.417 798.572 352.982 798.572 352.553C798.572 351.916 798.357 351.428 797.928 351.09C797.499 350.752 796.869 350.583 796.037 350.583C794.646 350.583 793.58 351.058 792.839 352.007L791.064 350.642C791.597 349.927 792.312 349.374 793.209 348.984C794.119 348.581 795.133 348.38 796.251 348.38C797.733 348.38 798.916 348.731 799.8 349.433C800.684 350.135 801.126 351.09 801.126 352.299C801.126 353.04 800.97 353.736 800.658 354.386C800.346 355.036 799.748 355.777 798.864 356.609L795.218 360.08H801.653ZM808.927 354.21C810.188 354.366 811.15 354.795 811.813 355.497C812.476 356.199 812.807 357.077 812.807 358.13C812.807 358.923 812.606 359.644 812.203 360.294C811.8 360.944 811.189 361.464 810.37 361.854C809.564 362.231 808.576 362.42 807.406 362.42C806.431 362.42 805.488 362.283 804.578 362.01C803.681 361.724 802.914 361.334 802.277 360.84L803.369 358.871C803.863 359.287 804.461 359.618 805.163 359.865C805.878 360.099 806.613 360.216 807.367 360.216C808.264 360.216 808.966 360.034 809.473 359.67C809.993 359.293 810.253 358.786 810.253 358.149C810.253 357.512 810.006 357.018 809.512 356.667C809.031 356.303 808.29 356.121 807.289 356.121H806.041V354.386L809.141 350.7H802.94V348.575H812.242V350.271L808.927 354.21ZM835.13 360.08V362.225H825.068V360.528L830.489 355.38C831.1 354.795 831.51 354.288 831.718 353.859C831.939 353.417 832.049 352.982 832.049 352.553C832.049 351.916 831.835 351.428 831.406 351.09C830.977 350.752 830.346 350.583 829.514 350.583C828.123 350.583 827.057 351.058 826.316 352.007L824.542 350.642C825.075 349.927 825.79 349.374 826.687 348.984C827.597 348.581 828.611 348.38 829.729 348.38C831.211 348.38 832.394 348.731 833.278 349.433C834.162 350.135 834.604 351.09 834.604 352.299C834.604 353.04 834.448 353.736 834.136 354.386C833.824 355.036 833.226 355.777 832.342 356.609L828.695 360.08H835.13ZM848.476 359.124H846.058V362.225H843.601V359.124H836.113V357.369L842.84 348.575H845.551L839.213 356.979H843.679V354.23H846.058V356.979H848.476V359.124ZM870.207 360.08V362.225H860.145V360.528L865.566 355.38C866.177 354.795 866.587 354.288 866.795 353.859C867.016 353.417 867.126 352.982 867.126 352.553C867.126 351.916 866.912 351.428 866.483 351.09C866.054 350.752 865.423 350.583 864.591 350.583C863.2 350.583 862.134 351.058 861.393 352.007L859.619 350.642C860.152 349.927 860.867 349.374 861.764 348.984C862.674 348.581 863.688 348.38 864.806 348.38C866.288 348.38 867.471 348.731 868.355 349.433C869.239 350.135 869.681 351.09 869.681 352.299C869.681 353.04 869.525 353.736 869.213 354.386C868.901 355.036 868.303 355.777 867.419 356.609L863.772 360.08H870.207ZM875.941 353.859C877.865 353.859 879.289 354.236 880.212 354.99C881.135 355.731 881.596 356.745 881.596 358.032C881.596 358.851 881.395 359.592 880.992 360.255C880.589 360.918 879.984 361.445 879.178 361.835C878.372 362.225 877.378 362.42 876.195 362.42C875.22 362.42 874.277 362.283 873.367 362.01C872.457 361.724 871.69 361.334 871.066 360.84L872.139 358.871C872.646 359.287 873.25 359.618 873.952 359.865C874.667 360.099 875.402 360.216 876.156 360.216C877.053 360.216 877.755 360.034 878.262 359.67C878.782 359.293 879.042 358.78 879.042 358.13C879.042 357.428 878.762 356.901 878.203 356.55C877.657 356.186 876.715 356.004 875.376 356.004H872.08L872.782 348.575H880.797V350.7H874.927L874.635 353.859H875.941ZM909.112 360.08V362.225H899.05V360.528L904.471 355.38C905.082 354.795 905.492 354.288 905.7 353.859C905.921 353.417 906.031 352.982 906.031 352.553C906.031 351.916 905.817 351.428 905.388 351.09C904.959 350.752 904.328 350.583 903.496 350.583C902.105 350.583 901.039 351.058 900.298 352.007L898.524 350.642C899.057 349.927 899.772 349.374 900.669 348.984C901.579 348.581 902.593 348.38 903.711 348.38C905.193 348.38 906.376 348.731 907.26 349.433C908.144 350.135 908.586 351.09 908.586 352.299C908.586 353.04 908.43 353.736 908.118 354.386C907.806 355.036 907.208 355.777 906.324 356.609L902.677 360.08H909.112ZM916.719 353.801C917.616 353.801 918.422 353.976 919.137 354.327C919.852 354.665 920.411 355.153 920.814 355.79C921.217 356.427 921.419 357.161 921.419 357.993C921.419 358.877 921.198 359.657 920.756 360.333C920.314 360.996 919.716 361.51 918.962 361.874C918.208 362.238 917.363 362.42 916.427 362.42C914.555 362.42 913.099 361.835 912.059 360.665C911.032 359.495 910.518 357.818 910.518 355.634C910.518 354.1 910.798 352.793 911.357 351.714C911.916 350.622 912.696 349.797 913.697 349.238C914.711 348.666 915.881 348.38 917.207 348.38C917.909 348.38 918.565 348.458 919.176 348.614C919.8 348.757 920.34 348.971 920.795 349.257L919.859 351.168C919.183 350.726 918.318 350.505 917.265 350.505C915.952 350.505 914.925 350.908 914.184 351.714C913.443 352.52 913.073 353.684 913.073 355.205V355.224C913.476 354.756 913.989 354.405 914.613 354.171C915.237 353.924 915.939 353.801 916.719 353.801ZM916.29 360.431C917.083 360.431 917.727 360.223 918.221 359.807C918.715 359.378 918.962 358.812 918.962 358.11C918.962 357.395 918.715 356.83 918.221 356.414C917.727 355.998 917.064 355.79 916.232 355.79C915.413 355.79 914.743 356.011 914.223 356.453C913.716 356.895 913.463 357.454 913.463 358.13C913.463 358.793 913.71 359.345 914.204 359.787C914.711 360.216 915.406 360.431 916.29 360.431ZM943.409 360.08V362.225H933.347V360.528L938.768 355.38C939.379 354.795 939.788 354.288 939.996 353.859C940.217 353.417 940.328 352.982 940.328 352.553C940.328 351.916 940.113 351.428 939.684 351.09C939.255 350.752 938.625 350.583 937.793 350.583C936.402 350.583 935.336 351.058 934.595 352.007L932.82 350.642C933.353 349.927 934.068 349.374 934.965 348.984C935.875 348.581 936.889 348.38 938.007 348.38C939.489 348.38 940.672 348.731 941.556 349.433C942.44 350.135 942.882 351.09 942.882 352.299C942.882 353.04 942.726 353.736 942.414 354.386C942.102 355.036 941.504 355.777 940.62 356.609L936.974 360.08H943.409ZM955.111 348.575V350.271L949.807 362.225H947.096L952.225 350.72H946.862V353.04H944.503V348.575H955.111ZM977.343 360.08V362.225H967.281V360.528L972.702 355.38C973.313 354.795 973.723 354.288 973.931 353.859C974.152 353.417 974.262 352.982 974.262 352.553C974.262 351.916 974.048 351.428 973.619 351.09C973.19 350.752 972.559 350.583 971.727 350.583C970.336 350.583 969.27 351.058 968.529 352.007L966.755 350.642C967.288 349.927 968.003 349.374 968.9 348.984C969.81 348.581 970.824 348.38 971.942 348.38C973.424 348.38 974.607 348.731 975.491 349.433C976.375 350.135 976.817 351.09 976.817 352.299C976.817 353.04 976.661 353.736 976.349 354.386C976.037 355.036 975.439 355.777 974.555 356.609L970.908 360.08H977.343ZM987.659 355.049C988.374 355.374 988.92 355.816 989.297 356.375C989.687 356.921 989.882 357.564 989.882 358.305C989.882 359.137 989.648 359.865 989.18 360.489C988.725 361.113 988.075 361.594 987.23 361.932C986.385 362.257 985.404 362.42 984.286 362.42C983.168 362.42 982.186 362.257 981.341 361.932C980.509 361.594 979.866 361.113 979.411 360.489C978.956 359.865 978.728 359.137 978.728 358.305C978.728 357.564 978.917 356.921 979.294 356.375C979.671 355.816 980.21 355.374 980.912 355.049C980.366 354.75 979.944 354.36 979.645 353.879C979.359 353.385 979.216 352.819 979.216 352.182C979.216 351.415 979.424 350.746 979.84 350.174C980.269 349.602 980.867 349.16 981.634 348.848C982.401 348.536 983.285 348.38 984.286 348.38C985.3 348.38 986.19 348.536 986.957 348.848C987.724 349.16 988.322 349.602 988.751 350.174C989.18 350.746 989.395 351.415 989.395 352.182C989.395 352.819 989.245 353.378 988.946 353.859C988.647 354.34 988.218 354.737 987.659 355.049ZM984.286 350.369C983.493 350.369 982.862 350.538 982.394 350.876C981.939 351.214 981.712 351.688 981.712 352.299C981.712 352.884 981.939 353.352 982.394 353.703C982.862 354.041 983.493 354.21 984.286 354.21C985.092 354.21 985.729 354.041 986.197 353.703C986.665 353.352 986.899 352.884 986.899 352.299C986.899 351.688 986.658 351.214 986.177 350.876C985.709 350.538 985.079 350.369 984.286 350.369ZM984.286 360.431C985.222 360.431 985.963 360.236 986.509 359.846C987.055 359.456 987.328 358.916 987.328 358.227C987.328 357.551 987.055 357.018 986.509 356.628C985.963 356.238 985.222 356.043 984.286 356.043C983.35 356.043 982.615 356.238 982.082 356.628C981.549 357.018 981.283 357.551 981.283 358.227C981.283 358.916 981.549 359.456 982.082 359.846C982.615 360.236 983.35 360.431 984.286 360.431ZM1012.19 360.08V362.225H1002.13V360.528L1007.55 355.38C1008.16 354.795 1008.57 354.288 1008.78 353.859C1009 353.417 1009.11 352.982 1009.11 352.553C1009.11 351.916 1008.9 351.428 1008.47 351.09C1008.04 350.752 1007.41 350.583 1006.58 350.583C1005.18 350.583 1004.12 351.058 1003.38 352.007L1001.6 350.642C1002.14 349.927 1002.85 349.374 1003.75 348.984C1004.66 348.581 1005.67 348.38 1006.79 348.38C1008.27 348.38 1009.46 348.731 1010.34 349.433C1011.22 350.135 1011.67 351.09 1011.67 352.299C1011.67 353.04 1011.51 353.736 1011.2 354.386C1010.89 355.036 1010.29 355.777 1009.4 356.609L1005.76 360.08H1012.19ZM1018.26 348.38C1020.13 348.38 1021.58 348.965 1022.61 350.135C1023.65 351.305 1024.17 352.982 1024.17 355.166C1024.17 356.7 1023.89 358.013 1023.33 359.105C1022.77 360.184 1021.98 361.009 1020.97 361.581C1019.97 362.14 1018.8 362.42 1017.48 362.42C1016.77 362.42 1016.11 362.348 1015.49 362.205C1014.88 362.049 1014.34 361.828 1013.89 361.542L1014.82 359.631C1015.5 360.073 1016.37 360.294 1017.42 360.294C1018.73 360.294 1019.76 359.891 1020.5 359.085C1021.24 358.279 1021.61 357.116 1021.61 355.595V355.575C1021.21 356.043 1020.69 356.401 1020.07 356.648C1019.45 356.882 1018.74 356.999 1017.96 356.999C1017.07 356.999 1016.26 356.83 1015.55 356.492C1014.83 356.141 1014.27 355.647 1013.87 355.01C1013.47 354.373 1013.26 353.638 1013.26 352.806C1013.26 351.922 1013.49 351.149 1013.93 350.486C1014.37 349.81 1014.97 349.29 1015.72 348.926C1016.48 348.562 1017.32 348.38 1018.26 348.38ZM1018.45 355.01C1019.27 355.01 1019.93 354.789 1020.44 354.347C1020.96 353.905 1021.22 353.346 1021.22 352.67C1021.22 352.007 1020.97 351.461 1020.46 351.032C1019.97 350.59 1019.28 350.369 1018.39 350.369C1017.6 350.369 1016.96 350.583 1016.46 351.012C1015.97 351.428 1015.72 351.987 1015.72 352.689C1015.72 353.404 1015.97 353.97 1016.46 354.386C1016.96 354.802 1017.62 355.01 1018.45 355.01Z" fill="black"/>
<path d="M230.62 300.673H223.97L222.659 303.751H220.113L226.098 290.451H228.53L234.534 303.751H231.95L230.62 300.673ZM229.803 298.735L227.295 292.921L224.806 298.735H229.803Z" fill="black"/>
<path d="M336.526 308.422H329.876L328.565 311.5H326.019L332.004 298.2H334.436L340.44 311.5H337.856L336.526 308.422ZM335.709 306.484L333.201 300.67L330.712 306.484H335.709Z" fill="black"/>
<path d="M591.604 308.422H584.954L583.643 311.5H581.097L587.082 298.2H589.514L595.518 311.5H592.934L591.604 308.422ZM590.787 306.484L588.279 300.67L585.79 306.484H590.787Z" fill="black"/>
<path d="M231.418 261.964C232.152 262.204 232.735 262.61 233.166 263.18C233.596 263.737 233.812 264.434 233.812 265.27C233.812 266.422 233.368 267.315 232.482 267.949C231.595 268.569 230.303 268.88 228.606 268.88H221.994V255.58H228.226C229.796 255.58 231.006 255.89 231.855 256.511C232.703 257.119 233.128 257.961 233.128 259.038C233.128 259.696 232.976 260.279 232.672 260.786C232.368 261.292 231.95 261.685 231.418 261.964ZM224.464 257.518V261.185H227.96C228.821 261.185 229.48 261.033 229.936 260.729C230.404 260.412 230.639 259.956 230.639 259.361C230.639 258.753 230.404 258.297 229.936 257.993C229.48 257.676 228.821 257.518 227.96 257.518H224.464ZM228.454 266.942C230.366 266.942 231.323 266.302 231.323 265.023C231.323 263.743 230.366 263.104 228.454 263.104H224.464V266.942H228.454Z" fill="black"/>
<path d="M337.324 281.337C338.058 281.577 338.641 281.983 339.072 282.553C339.502 283.11 339.718 283.807 339.718 284.643C339.718 285.795 339.274 286.688 338.388 287.322C337.501 287.942 336.209 288.253 334.512 288.253H327.9V274.953H334.132C335.702 274.953 336.912 275.263 337.761 275.884C338.609 276.492 339.034 277.334 339.034 278.411C339.034 279.069 338.882 279.652 338.578 280.159C338.274 280.665 337.856 281.058 337.324 281.337ZM330.37 276.891V280.558H333.866C334.727 280.558 335.386 280.406 335.842 280.102C336.31 279.785 336.545 279.329 336.545 278.734C336.545 278.126 336.31 277.67 335.842 277.366C335.386 277.049 334.727 276.891 333.866 276.891H330.37ZM334.36 286.315C336.272 286.315 337.229 285.675 337.229 284.396C337.229 283.116 336.272 282.477 334.36 282.477H330.37V286.315H334.36Z" fill="black"/>
<path d="M592.402 281.337C593.137 281.577 593.72 281.983 594.15 282.553C594.581 283.11 594.796 283.807 594.796 284.643C594.796 285.795 594.353 286.688 593.466 287.322C592.58 287.942 591.288 288.253 589.59 288.253H582.978V274.953H589.21C590.781 274.953 591.991 275.263 592.839 275.884C593.688 276.492 594.112 277.334 594.112 278.411C594.112 279.069 593.96 279.652 593.656 280.159C593.352 280.665 592.934 281.058 592.402 281.337ZM585.448 276.891V280.558H588.944C589.806 280.558 590.464 280.406 590.92 280.102C591.389 279.785 591.623 279.329 591.623 278.734C591.623 278.126 591.389 277.67 590.92 277.366C590.464 277.049 589.806 276.891 588.944 276.891H585.448ZM589.438 286.315C591.351 286.315 592.307 285.675 592.307 284.396C592.307 283.116 591.351 282.477 589.438 282.477H585.448V286.315H589.438Z" fill="black"/>
<path d="M333.41 263.904C332.067 263.904 330.851 263.612 329.762 263.03C328.685 262.434 327.837 261.617 327.216 260.579C326.608 259.54 326.304 258.368 326.304 257.064C326.304 255.759 326.614 254.587 327.235 253.549C327.856 252.51 328.704 251.699 329.781 251.117C330.87 250.521 332.086 250.224 333.429 250.224C334.518 250.224 335.513 250.414 336.412 250.794C337.311 251.174 338.071 251.725 338.692 252.447L337.096 253.948C336.133 252.909 334.949 252.39 333.543 252.39C332.631 252.39 331.814 252.592 331.092 252.998C330.37 253.39 329.806 253.941 329.401 254.651C328.996 255.36 328.793 256.164 328.793 257.064C328.793 257.963 328.996 258.767 329.401 259.477C329.806 260.186 330.37 260.743 331.092 261.149C331.814 261.541 332.631 261.738 333.543 261.738C334.949 261.738 336.133 261.212 337.096 260.161L338.692 261.681C338.071 262.403 337.305 262.954 336.393 263.334C335.494 263.714 334.499 263.904 333.41 263.904Z" fill="black"/>
<path d="M588.489 263.904C587.146 263.904 585.93 263.612 584.841 263.03C583.764 262.434 582.916 261.617 582.295 260.579C581.687 259.54 581.383 258.368 581.383 257.064C581.383 255.759 581.693 254.587 582.314 253.549C582.935 252.51 583.783 251.699 584.86 251.117C585.949 250.521 587.165 250.224 588.508 250.224C589.597 250.224 590.592 250.414 591.491 250.794C592.39 251.174 593.15 251.725 593.771 252.447L592.175 253.948C591.212 252.909 590.028 252.39 588.622 252.39C587.71 252.39 586.893 252.592 586.171 252.998C585.449 253.39 584.885 253.941 584.48 254.651C584.075 255.36 583.872 256.164 583.872 257.064C583.872 257.963 584.075 258.767 584.48 259.477C584.885 260.186 585.449 260.743 586.171 261.149C586.893 261.541 587.71 261.738 588.622 261.738C590.028 261.738 591.212 261.212 592.175 260.161L593.771 261.681C593.15 262.403 592.384 262.954 591.472 263.334C590.573 263.714 589.578 263.904 588.489 263.904Z" fill="black"/>
<path d="M327.254 197.46H333.068C334.487 197.46 335.747 197.739 336.849 198.296C337.951 198.841 338.806 199.62 339.414 200.633C340.022 201.634 340.326 202.793 340.326 204.11C340.326 205.428 340.022 206.593 339.414 207.606C338.806 208.607 337.951 209.386 336.849 209.943C335.747 210.488 334.487 210.76 333.068 210.76H327.254V197.46ZM332.954 208.67C333.929 208.67 334.784 208.487 335.519 208.119C336.266 207.739 336.836 207.207 337.229 206.523C337.634 205.827 337.837 205.022 337.837 204.11C337.837 203.198 337.634 202.4 337.229 201.716C336.836 201.02 336.266 200.488 335.519 200.12C334.784 199.74 333.929 199.55 332.954 199.55H329.724V208.67H332.954Z" fill="black"/>
<path d="M582.333 197.46H588.147C589.566 197.46 590.826 197.739 591.928 198.296C593.03 198.841 593.885 199.62 594.493 200.633C595.101 201.634 595.405 202.793 595.405 204.11C595.405 205.428 595.101 206.593 594.493 207.606C593.885 208.607 593.03 209.386 591.928 209.943C590.826 210.488 589.566 210.76 588.147 210.76H582.333V197.46ZM588.033 208.67C589.008 208.67 589.863 208.487 590.598 208.119C591.345 207.739 591.915 207.207 592.308 206.523C592.713 205.827 592.916 205.022 592.916 204.11C592.916 203.198 592.713 202.4 592.308 201.716C591.915 201.02 591.345 200.488 590.598 200.12C589.863 199.74 589.008 199.55 588.033 199.55H584.803V208.67H588.033Z" fill="black"/>
<path d="M337.875 184.796V186.867H327.9V173.567H337.609V175.638H330.37V179.096H336.792V181.129H330.37V184.796H337.875Z" fill="black"/>
<path d="M592.953 184.796V186.867H582.978V173.567H592.687V175.638H585.448V179.096H591.87V181.129H585.448V184.796H592.953Z" fill="black"/>
<path d="M331.015 151.099V155.146H337.437V157.236H331.015V162.328H328.545V149.028H338.254V151.099H331.015Z" fill="black"/>
<path d="M586.094 151.099V155.146H592.516V157.236H586.094V162.328H583.624V149.028H593.333V151.099H586.094Z" fill="black"/>
<path d="M225.109 191.782V195.829H231.531V197.919H225.109V203.011H222.639V189.711H232.348V191.782H225.109Z" fill="black"/>
<path d="M231.721 161.338H234.058V166.639C233.374 167.183 232.576 167.601 231.664 167.893C230.752 168.184 229.815 168.33 228.852 168.33C227.497 168.33 226.275 168.038 225.185 167.456C224.096 166.86 223.241 166.043 222.62 165.005C222 163.966 221.689 162.794 221.689 161.49C221.689 160.185 222 159.013 222.62 157.975C223.241 156.936 224.096 156.125 225.185 155.543C226.287 154.947 227.522 154.65 228.89 154.65C230.005 154.65 231.018 154.833 231.93 155.201C232.842 155.568 233.609 156.106 234.229 156.816L232.671 158.336C231.658 157.322 230.436 156.816 229.004 156.816C228.067 156.816 227.231 157.012 226.496 157.405C225.774 157.797 225.204 158.348 224.786 159.058C224.381 159.767 224.178 160.578 224.178 161.49C224.178 162.376 224.381 163.174 224.786 163.884C225.204 164.593 225.774 165.15 226.496 165.556C227.231 165.961 228.061 166.164 228.985 166.164C230.024 166.164 230.936 165.936 231.721 165.48V161.338Z" fill="black"/>
<rect x="193.731" y="72.0015" width="114.947" height="26.4766" rx="10" fill="#696969"/>
<rect x="314.49" y="72.0015" width="235.06" height="26.4766" rx="10" fill="#696969"/>
<rect x="552.779" y="72.0015" width="481.744" height="26.4766" rx="10" fill="#696969"/>
<path d="M215.98 80.0302H224.7V81.7422H218.028V84.4942H221.34C222.684 84.4942 223.702 84.7769 224.396 85.3422C225.1 85.8969 225.452 86.7022 225.452 87.7582C225.452 88.8676 225.068 89.7262 224.3 90.3342C223.532 90.9316 222.438 91.2302 221.02 91.2302H215.98V80.0302ZM220.908 89.6302C221.708 89.6302 222.316 89.4756 222.732 89.1662C223.148 88.8569 223.356 88.4089 223.356 87.8222C223.356 86.6702 222.54 86.0942 220.908 86.0942H218.028V89.6302H220.908ZM227.745 80.0302H229.793V87.9822L235.809 80.0302H237.745V91.2302H235.697V83.2942L229.681 91.2302H227.745V80.0302ZM246.773 85.3902C247.445 85.6036 247.968 85.9502 248.341 86.4302C248.725 86.8996 248.917 87.4542 248.917 88.0942C248.917 88.7662 248.699 89.3529 248.261 89.8542C247.824 90.3449 247.237 90.7236 246.501 90.9902C245.776 91.2569 244.981 91.3902 244.117 91.3902C243.371 91.3902 242.619 91.2889 241.861 91.0862C241.115 90.8729 240.421 90.5582 239.781 90.1422L240.453 88.6222C240.944 88.9529 241.488 89.2089 242.085 89.3902C242.683 89.5609 243.275 89.6462 243.861 89.6462C244.704 89.6462 245.403 89.4809 245.957 89.1502C246.523 88.8196 246.805 88.3662 246.805 87.7902C246.805 87.2996 246.603 86.9262 246.197 86.6702C245.792 86.4142 245.232 86.2862 244.517 86.2862H241.909V84.6542H244.357C244.976 84.6542 245.461 84.5262 245.813 84.2702C246.165 84.0142 246.341 83.6676 246.341 83.2302C246.341 82.7076 246.101 82.3022 245.621 82.0142C245.152 81.7262 244.549 81.5822 243.813 81.5822C243.312 81.5822 242.795 81.6569 242.261 81.8062C241.728 81.9449 241.227 82.1529 240.757 82.4302L240.101 80.7502C240.677 80.4409 241.285 80.2116 241.925 80.0622C242.576 79.9022 243.221 79.8222 243.861 79.8222C244.693 79.8222 245.456 79.9502 246.149 80.2062C246.853 80.4622 247.413 80.8302 247.829 81.3102C248.245 81.7796 248.453 82.3342 248.453 82.9742C248.453 83.5289 248.304 84.0142 248.005 84.4302C247.707 84.8462 247.296 85.1662 246.773 85.3902ZM261.228 80.0302V91.2302H259.148V86.4302H253.356V91.2302H251.276V80.0302H253.356V84.6542H259.148V80.0302H261.228ZM272.77 89.4862V91.2302H264.37V80.0302H272.546V81.7742H266.45V84.6862H271.858V86.3982H266.45V89.4862H272.77ZM280.194 91.3902C279.063 91.3902 278.039 91.1449 277.122 90.6542C276.215 90.1529 275.5 89.4649 274.978 88.5902C274.466 87.7156 274.21 86.7289 274.21 85.6302C274.21 84.5316 274.471 83.5449 274.994 82.6702C275.516 81.7956 276.231 81.1129 277.138 80.6222C278.055 80.1209 279.079 79.8702 280.21 79.8702C281.127 79.8702 281.964 80.0302 282.722 80.3502C283.479 80.6702 284.119 81.1342 284.642 81.7422L283.298 83.0062C282.487 82.1316 281.49 81.6942 280.306 81.6942C279.538 81.6942 278.85 81.8649 278.242 82.2062C277.634 82.5369 277.159 83.0009 276.818 83.5982C276.476 84.1956 276.306 84.8729 276.306 85.6302C276.306 86.3876 276.476 87.0649 276.818 87.6622C277.159 88.2596 277.634 88.7289 278.242 89.0702C278.85 89.4009 279.538 89.5662 280.306 89.5662C281.49 89.5662 282.487 89.1236 283.298 88.2382L284.642 89.5182C284.119 90.1262 283.474 90.5902 282.706 90.9102C281.948 91.2302 281.111 91.3902 280.194 91.3902Z" fill="white"/>
<path d="M394.295 79.8702C395.383 79.8702 396.359 80.1209 397.223 80.6222C398.098 81.1129 398.78 81.7956 399.271 82.6702C399.762 83.5449 400.007 84.5316 400.007 85.6302C400.007 86.7289 399.762 87.7156 399.271 88.5902C398.78 89.4649 398.098 90.1529 397.223 90.6542C396.359 91.1449 395.383 91.3902 394.295 91.3902C393.346 91.3902 392.482 91.2302 391.703 90.9102C390.935 90.5902 390.295 90.1262 389.783 89.5182L391.095 88.2382C391.916 89.1236 392.946 89.5662 394.183 89.5662C395.143 89.5662 395.954 89.2729 396.615 88.6862C397.287 88.0996 397.698 87.3262 397.847 86.3662H392.839V84.7182H397.815C397.634 83.8116 397.212 83.0809 396.551 82.5262C395.9 81.9716 395.111 81.6942 394.183 81.6942C392.946 81.6942 391.916 82.1369 391.095 83.0222L389.783 81.7422C390.295 81.1342 390.935 80.6702 391.703 80.3502C392.482 80.0302 393.346 79.8702 394.295 79.8702ZM406.454 86.5102H404.374V91.2302H402.326V80.0302H404.374V84.7182H406.518L409.734 80.0302H411.942L408.118 85.4542L412.086 91.2302H409.734L406.454 86.5102ZM418.651 91.3902C417.51 91.3902 416.48 91.1449 415.563 90.6542C414.646 90.1529 413.926 89.4649 413.403 88.5902C412.88 87.7049 412.619 86.7182 412.619 85.6302C412.619 84.5422 412.88 83.5609 413.403 82.6862C413.926 81.8009 414.646 81.1129 415.563 80.6222C416.48 80.1209 417.51 79.8702 418.651 79.8702C419.792 79.8702 420.822 80.1209 421.739 80.6222C422.656 81.1129 423.376 81.7956 423.899 82.6702C424.422 83.5449 424.683 84.5316 424.683 85.6302C424.683 86.7289 424.422 87.7156 423.899 88.5902C423.376 89.4649 422.656 90.1529 421.739 90.6542C420.822 91.1449 419.792 91.3902 418.651 91.3902ZM418.651 89.5662C419.398 89.5662 420.07 89.4009 420.667 89.0702C421.264 88.7289 421.734 88.2596 422.075 87.6622C422.416 87.0542 422.587 86.3769 422.587 85.6302C422.587 84.8836 422.416 84.2116 422.075 83.6142C421.734 83.0062 421.264 82.5369 420.667 82.2062C420.07 81.8649 419.398 81.6942 418.651 81.6942C417.904 81.6942 417.232 81.8649 416.635 82.2062C416.038 82.5369 415.568 83.0062 415.227 83.6142C414.886 84.2116 414.715 84.8836 414.715 85.6302C414.715 86.3769 414.886 87.0542 415.227 87.6622C415.568 88.2596 416.038 88.7289 416.635 89.0702C417.232 89.4009 417.904 89.5662 418.651 89.5662ZM436.935 80.0302V91.2302H434.855V86.4302H429.063V91.2302H426.983V80.0302H429.063V84.6542H434.855V80.0302H436.935ZM445.26 91.3902C444.119 91.3902 443.09 91.1449 442.172 90.6542C441.255 90.1529 440.535 89.4649 440.012 88.5902C439.49 87.7049 439.228 86.7182 439.228 85.6302C439.228 84.5422 439.49 83.5609 440.012 82.6862C440.535 81.8009 441.255 81.1129 442.172 80.6222C443.09 80.1209 444.119 79.8702 445.26 79.8702C446.402 79.8702 447.431 80.1209 448.348 80.6222C449.266 81.1129 449.986 81.7956 450.508 82.6702C451.031 83.5449 451.292 84.5316 451.292 85.6302C451.292 86.7289 451.031 87.7156 450.508 88.5902C449.986 89.4649 449.266 90.1529 448.348 90.6542C447.431 91.1449 446.402 91.3902 445.26 91.3902ZM445.26 89.5662C446.007 89.5662 446.679 89.4009 447.276 89.0702C447.874 88.7289 448.343 88.2596 448.684 87.6622C449.026 87.0542 449.196 86.3769 449.196 85.6302C449.196 84.8836 449.026 84.2116 448.684 83.6142C448.343 83.0062 447.874 82.5369 447.276 82.2062C446.679 81.8649 446.007 81.6942 445.26 81.6942C444.514 81.6942 443.842 81.8649 443.244 82.2062C442.647 82.5369 442.178 83.0062 441.836 83.6142C441.495 84.2116 441.324 84.8836 441.324 85.6302C441.324 86.3769 441.495 87.0542 441.836 87.6622C442.178 88.2596 442.647 88.7289 443.244 89.0702C443.842 89.4009 444.514 89.5662 445.26 89.5662ZM463.88 91.2302L463.864 83.8062L460.184 89.9502H459.256L455.576 83.9022V91.2302H453.608V80.0302H455.32L459.752 87.4382L464.136 80.0302H465.832L465.864 91.2302H463.88Z" fill="white"/>
<path d="M690.983 81.7902H687.271V91.2302H685.207V81.7902H681.511V80.0302H690.983V81.7902ZM701.909 80.0302L697.045 89.0702C696.618 89.8702 696.106 90.4729 695.509 90.8782C694.922 91.2729 694.282 91.4702 693.589 91.4702C693.034 91.4702 692.485 91.3529 691.941 91.1182L692.453 89.4862C692.89 89.6249 693.253 89.6942 693.541 89.6942C694.213 89.6942 694.767 89.3476 695.205 88.6542L695.381 88.3822L690.917 80.0302H693.141L696.453 86.6062L699.861 80.0302H701.909ZM707.963 80.0302C708.934 80.0302 709.776 80.1902 710.491 80.5102C711.216 80.8302 711.771 81.2889 712.155 81.8862C712.539 82.4836 712.731 83.1929 712.731 84.0142C712.731 84.8249 712.539 85.5342 712.155 86.1422C711.771 86.7396 711.216 87.1982 710.491 87.5182C709.776 87.8382 708.934 87.9982 707.963 87.9982H705.435V91.2302H703.355V80.0302H707.963ZM707.867 86.2382C708.774 86.2382 709.462 86.0462 709.931 85.6622C710.4 85.2782 710.635 84.7289 710.635 84.0142C710.635 83.2996 710.4 82.7502 709.931 82.3662C709.462 81.9822 708.774 81.7902 707.867 81.7902H705.435V86.2382H707.867ZM714.715 80.0302H716.763V87.9822L722.779 80.0302H724.715V91.2302H722.667V83.2942L716.651 91.2302H714.715V80.0302ZM733.007 91.3902C731.876 91.3902 730.852 91.1449 729.935 90.6542C729.028 90.1529 728.314 89.4649 727.791 88.5902C727.279 87.7156 727.023 86.7289 727.023 85.6302C727.023 84.5316 727.284 83.5449 727.807 82.6702C728.33 81.7956 729.044 81.1129 729.951 80.6222C730.868 80.1209 731.892 79.8702 733.023 79.8702C733.94 79.8702 734.778 80.0302 735.535 80.3502C736.292 80.6702 736.932 81.1342 737.455 81.7422L736.111 83.0062C735.3 82.1316 734.303 81.6942 733.119 81.6942C732.351 81.6942 731.663 81.8649 731.055 82.2062C730.447 82.5369 729.972 83.0009 729.631 83.5982C729.29 84.1956 729.119 84.8729 729.119 85.6302C729.119 86.3876 729.29 87.0649 729.631 87.6622C729.972 88.2596 730.447 88.7289 731.055 89.0702C731.663 89.4009 732.351 89.5662 733.119 89.5662C734.303 89.5662 735.3 89.1236 736.111 88.2382L737.455 89.5182C736.932 90.1262 736.287 90.5902 735.519 90.9102C734.762 91.2302 733.924 91.3902 733.007 91.3902ZM747.389 81.7902H743.677V91.2302H741.613V81.7902H737.917V80.0302H747.389V81.7902ZM749.199 80.0302H751.247V87.9822L757.263 80.0302H759.199V91.2302H757.151V83.2942L751.135 91.2302H749.199V80.0302ZM770.763 80.0302V91.2302H768.699V87.0062C767.643 87.4009 766.64 87.5982 765.691 87.5982C764.262 87.5982 763.158 87.2569 762.379 86.5742C761.611 85.8809 761.227 84.8889 761.227 83.5982V80.0302H763.291V83.3742C763.291 84.1636 763.52 84.7662 763.979 85.1822C764.438 85.5982 765.094 85.8062 765.947 85.8062C766.918 85.8062 767.835 85.6089 768.699 85.2142V80.0302H770.763ZM782.302 89.4862V91.2302H773.902V80.0302H782.078V81.7742H775.982V84.6862H781.39V86.3982H775.982V89.4862H782.302ZM789.726 91.3902C788.595 91.3902 787.571 91.1449 786.654 90.6542C785.747 90.1529 785.033 89.4649 784.51 88.5902C783.998 87.7156 783.742 86.7289 783.742 85.6302C783.742 84.5316 784.003 83.5449 784.526 82.6702C785.049 81.7956 785.763 81.1129 786.67 80.6222C787.587 80.1209 788.611 79.8702 789.742 79.8702C790.659 79.8702 791.497 80.0302 792.254 80.3502C793.011 80.6702 793.651 81.1342 794.174 81.7422L792.83 83.0062C792.019 82.1316 791.022 81.6942 789.838 81.6942C789.07 81.6942 788.382 81.8649 787.774 82.2062C787.166 82.5369 786.691 83.0009 786.35 83.5982C786.009 84.1956 785.838 84.8729 785.838 85.6302C785.838 86.3876 786.009 87.0649 786.35 87.6622C786.691 88.2596 787.166 88.7289 787.774 89.0702C788.382 89.4009 789.07 89.5662 789.838 89.5662C791.022 89.5662 792.019 89.1236 792.83 88.2382L794.174 89.5182C793.651 90.1262 793.006 90.5902 792.238 90.9102C791.481 91.2302 790.643 91.3902 789.726 91.3902ZM800.233 86.5102H798.153V91.2302H796.105V80.0302H798.153V84.7182H800.297L803.513 80.0302H805.721L801.897 85.4542L805.865 91.2302H803.513L800.233 86.5102ZM807.293 80.0302H809.341V87.9822L815.357 80.0302H817.293V91.2302H815.245V83.2942L809.229 91.2302H807.293V80.0302ZM820.449 80.0302H822.497V87.9822L828.513 80.0302H830.449V91.2302H828.401V83.2942L822.385 91.2302H820.449V80.0302ZM825.425 79.2782C824.465 79.2782 823.74 79.0809 823.249 78.6862C822.769 78.2916 822.524 77.7156 822.513 76.9582H823.969C823.98 77.3529 824.108 77.6569 824.353 77.8702C824.599 78.0836 824.956 78.1902 825.425 78.1902C825.884 78.1902 826.241 78.0836 826.497 77.8702C826.764 77.6569 826.903 77.3529 826.913 76.9582H828.353C828.343 77.7049 828.087 78.2809 827.585 78.6862C827.095 79.0809 826.375 79.2782 825.425 79.2782ZM842.139 86.5102H840.059V91.2302H838.011V80.0302H840.059V84.7182H842.203L845.419 80.0302H847.627L843.803 85.4542L847.771 91.2302H845.419L842.139 86.5102ZM859.017 80.0302V91.2302H856.969V81.7902H852.553L852.457 84.5902C852.404 86.1582 852.276 87.4329 852.073 88.4142C851.87 89.3849 851.545 90.1262 851.097 90.6382C850.649 91.1396 850.03 91.3902 849.241 91.3902C848.964 91.3902 848.585 91.3369 848.105 91.2302L848.249 89.4222C848.388 89.4649 848.548 89.4862 848.729 89.4862C849.38 89.4862 849.838 89.1022 850.105 88.3342C850.382 87.5556 850.553 86.3342 850.617 84.6702L850.777 80.0302H859.017ZM869.592 88.6382H863.992L862.888 91.2302H860.744L865.784 80.0302H867.832L872.888 91.2302H870.712L869.592 88.6382ZM868.904 87.0062L866.792 82.1102L864.696 87.0062H868.904ZM879.601 91.3902C878.47 91.3902 877.446 91.1449 876.529 90.6542C875.622 90.1529 874.908 89.4649 874.385 88.5902C873.873 87.7156 873.617 86.7289 873.617 85.6302C873.617 84.5316 873.878 83.5449 874.401 82.6702C874.924 81.7956 875.638 81.1129 876.545 80.6222C877.462 80.1209 878.486 79.8702 879.617 79.8702C880.534 79.8702 881.372 80.0302 882.129 80.3502C882.886 80.6702 883.526 81.1342 884.049 81.7422L882.705 83.0062C881.894 82.1316 880.897 81.6942 879.713 81.6942C878.945 81.6942 878.257 81.8649 877.649 82.2062C877.041 82.5369 876.566 83.0009 876.225 83.5982C875.884 84.1956 875.713 84.8729 875.713 85.6302C875.713 86.3876 875.884 87.0649 876.225 87.6622C876.566 88.2596 877.041 88.7289 877.649 89.0702C878.257 89.4009 878.945 89.5662 879.713 89.5662C880.897 89.5662 881.894 89.1236 882.705 88.2382L884.049 89.5182C883.526 90.1262 882.881 90.5902 882.113 90.9102C881.356 91.2302 880.518 91.3902 879.601 91.3902ZM890.898 91.3902C889.767 91.3902 888.743 91.1449 887.826 90.6542C886.919 90.1529 886.204 89.4649 885.682 88.5902C885.17 87.7156 884.914 86.7289 884.914 85.6302C884.914 84.5316 885.175 83.5449 885.698 82.6702C886.22 81.7956 886.935 81.1129 887.842 80.6222C888.759 80.1209 889.783 79.8702 890.914 79.8702C891.831 79.8702 892.668 80.0302 893.426 80.3502C894.183 80.6702 894.823 81.1342 895.346 81.7422L894.002 83.0062C893.191 82.1316 892.194 81.6942 891.01 81.6942C890.242 81.6942 889.554 81.8649 888.946 82.2062C888.338 82.5369 887.863 83.0009 887.522 83.5982C887.18 84.1956 887.01 84.8729 887.01 85.6302C887.01 86.3876 887.18 87.0649 887.522 87.6622C887.863 88.2596 888.338 88.7289 888.946 89.0702C889.554 89.4009 890.242 89.5662 891.01 89.5662C892.194 89.5662 893.191 89.1236 894.002 88.2382L895.346 89.5182C894.823 90.1262 894.178 90.5902 893.41 90.9102C892.652 91.2302 891.815 91.3902 890.898 91.3902Z" fill="white"/>
<defs>
<linearGradient id="paint0_linear_120_2" x1="593.139" y1="0.966797" x2="593.139" y2="142.39" gradientUnits="userSpaceOnUse">
<stop offset="0.383333" stop-color="#C4C4C4" stop-opacity="0"/>
<stop offset="1" stop-color="#C4C4C4"/>
</linearGradient>
<linearGradient id="paint1_linear_120_2" x1="594.431" y1="458.817" x2="594.431" y2="317.394" gradientUnits="userSpaceOnUse">
<stop offset="0.419792" stop-color="#C4C4C4" stop-opacity="0"/>
<stop offset="1" stop-color="#C4C4C4"/>
</linearGradient>
</defs>
</svg>
